<svg width="430" height="120" viewBox="0 0 430 120" fill="none" xmlns="http://www.w3.org/2000/svg">
<path d="M232.394 12C232.853 13.0715 233.237 14.1498 233.661 15.2133C235.2 19.0693 236.753 22.9204 238.302 26.773C238.358 26.914 238.423 27.052 238.497 27.22C240.406 26.3173 242.007 25.1357 242.987 23.2713C243.708 24.7733 243.161 26.8455 241.736 28.138C240.584 29.1836 239.205 29.8724 237.746 30.4266C232.747 32.325 227.558 33.6052 222.313 34.68C216.953 35.7781 211.576 36.8024 206.368 38.4788C204.279 39.1515 202.258 39.9633 200.46 41.3558C200.423 39.9899 200.99 38.9619 201.914 38.0875C202.183 37.8329 202.472 37.5743 202.801 37.4061C203.501 37.0486 203.829 36.4831 204.103 35.7948C207.254 27.8836 210.432 19.9826 213.576 12.0394C216.241 12 218.932 12 221.676 12.0474C221.747 12.1561 221.763 12.2172 221.772 12.3231C221.737 12.4993 221.714 12.6319 221.68 12.7619C219.956 19.3718 218.23 25.9814 216.507 32.5915C216.462 32.7647 216.437 32.9426 216.386 33.2019C220.63 32.2682 224.762 31.3593 228.906 30.4476C228.862 30.2025 228.845 30.0514 228.807 29.9054C227.304 24.1504 225.799 18.3963 224.302 12.6402C224.249 12.4364 224.275 12.2138 224.264 12C226.955 12 229.646 12 232.394 12Z" fill="#003366"/>
<path d="M253.338 66C253.196 65.9253 253.123 65.7985 253.03 65.7834C250.15 65.3125 247.273 64.8139 244.383 64.4036C242.264 64.1029 240.128 63.9093 237.997 63.6953C237.62 63.6575 237.561 63.4729 237.488 63.1889C236.215 58.2875 234.933 53.3886 233.653 48.4889C233.48 47.827 233.311 47.1641 233.144 46.5165C237.01 45.2352 240.965 44.3655 244.59 42.4667C244.995 43.4659 245.406 44.4708 245.81 45.4781C248.429 52.0074 251.047 58.5374 253.669 65.0657C253.731 65.2183 253.84 65.3532 253.964 65.4603C254 65.6071 254 65.7899 254 66C253.8 66 253.599 66 253.338 66Z" fill="#003366"/>
<path d="M192 65.4819C192.108 65.324 192.266 65.2425 192.317 65.1204C192.678 64.2499 193.077 63.3877 193.352 62.4915C193.946 60.559 195.296 59.1768 196.841 57.9272C199.328 55.916 202.249 54.6797 205.3 53.7089C207.288 53.0764 209.308 52.5358 211.445 51.9159C211.281 52.5926 211.156 53.1443 211.013 53.6916C210.189 56.8463 209.351 59.9979 208.543 63.1567C208.444 63.5447 208.285 63.6699 207.874 63.7058C202.844 64.145 197.856 64.8679 192.899 65.789C192.811 65.8054 192.734 65.8755 192.687 65.9602C192.493 66 192.264 66 192 66C192 65.847 192 65.6932 192 65.4819Z" fill="#003366"/>
<path d="M221.826 12C221.85 12.0751 221.843 12.1501 221.808 12.2518C221.763 12.2172 221.747 12.1561 221.733 12.0474C221.736 12 221.796 12 221.826 12Z" fill="#003366"/>
<path d="M201.607 52.8507C198.643 54.1862 196.067 55.9227 194.11 58.5828C193.867 57.0408 194.078 55.6831 194.723 54.3795C195.568 52.6696 196.914 51.3721 198.473 50.262C201.143 48.3607 204.182 47.1678 207.351 46.3315C211.34 45.279 215.386 44.4256 219.392 43.4282C225.602 41.8819 231.807 40.316 237.995 38.6894C239.391 38.3224 240.74 37.7405 242.05 37.1365C244.672 35.9274 246.836 34.2167 248.101 31.6089C248.575 32.3179 248.744 33.6255 248.534 34.7566C248.031 37.4583 246.38 39.3675 243.866 40.5173C241.963 41.3877 239.959 42.0802 237.954 42.72C229.314 45.4772 220.442 47.4356 211.645 49.6533C208.243 50.5109 204.857 51.4181 201.607 52.8507Z" fill="#003366"/>
<path d="M245.961 28.299C246.105 30.8442 244.84 32.6763 242.89 34.1396C241.02 35.5428 238.83 36.382 236.573 36.9737C231.656 38.2625 226.71 39.4486 221.772 40.6627C216.564 41.9433 211.336 43.1501 206.148 44.5031C203.463 45.2035 200.888 46.234 198.663 47.9062C198.116 48.3178 197.62 48.7923 197.07 49.2642C196.71 48.0384 196.871 46.8869 197.535 45.8028C198.503 44.2206 200.008 43.2187 201.663 42.4002C204.11 41.1902 206.72 40.3831 209.382 39.7685C215.232 38.418 221.102 37.1473 226.961 35.8328C230.679 34.9987 234.392 34.1387 237.966 32.8284C240.304 31.9716 242.513 30.8912 244.125 28.9801C244.683 28.3189 245.115 27.5611 245.672 26.7499C245.772 27.281 245.864 27.7652 245.961 28.299Z" fill="#003366"/>
<path d="M115.144 12.8V38.464C115.144 49.408 111.048 53.568 104.712 53.568C98.376 53.568 94.28 49.408 94.28 38.464V12.8H81.48V41.664C81.48 58.368 90.44 64.768 104.712 64.768C118.984 64.768 127.944 58.368 127.944 41.664V12.8H115.144Z" fill="#003366"/>
<path d="M173.968 12.8V44.928L147.92 12.8H135.12V64H147.92V32.192L173.968 64H186.768V12.8H173.968Z" fill="#003366"/>
<path d="M300.008 14.592C296.296 13.12 287.912 11.968 281.704 11.968C268.328 11.968 259.56 17.792 259.56 27.264C259.56 44.224 288.168 42.944 288.168 49.984C288.168 52.352 284.712 53.76 279.08 53.76C270.824 53.76 262.696 50.752 260.2 50.048V61.44C266.024 63.104 274.28 64.896 281.768 64.896C293.352 64.896 300.968 60.608 300.968 51.008C300.968 32.064 272.808 32.832 272.808 27.2C272.808 24.192 279.464 23.552 283.56 23.552C288.68 23.552 295.464 24.576 300.008 26.112V14.592Z" fill="#003366"/>
<path d="M330.584 12.8H308.12V64H320.92V49.472H331.224C343 49.472 354.52 45.568 354.52 31.36C354.52 16.128 341.72 12.8 330.584 12.8ZM331.864 37.952H320.92V24.32H331.864C338.84 24.32 341.592 27.136 341.592 31.424C341.592 35.2 338.84 37.952 331.864 37.952Z" fill="#003366"/>
<path d="M2.63477 97.328C3.27877 97.944 4.13277 98.252 5.21077 98.252C6.24677 98.252 7.07277 97.972 7.68877 97.412C8.30477 96.866 8.61277 96.096 8.61277 95.158V94.962H7.33877V95.158C7.33877 95.746 7.15677 96.194 6.77877 96.53C6.41477 96.866 5.89677 97.034 5.22477 97.034C3.71277 97.034 2.97077 96.194 2.97077 94.472V91.952C2.97077 90.986 3.16677 90.3 3.54477 89.894C3.92277 89.488 4.46877 89.278 5.21077 89.278C5.88277 89.278 6.40077 89.446 6.77877 89.782C7.15677 90.132 7.33877 90.58 7.33877 91.168V91.35H8.64077V91.168C8.64077 90.566 8.50077 90.02 8.22077 89.544C7.92677 89.068 7.52077 88.704 7.00277 88.452C6.48477 88.2 5.88277 88.074 5.21077 88.074C4.13277 88.074 3.27877 88.382 2.63477 88.998C1.99077 89.628 1.66877 90.594 1.66877 91.91V94.416C1.66877 95.732 1.99077 96.698 2.63477 97.328ZM18.7117 92.484V89.404H23.5557V88.2H17.4097V98.14H23.5557V96.936H18.7117V93.688H22.8557V92.484H18.7117ZM38.0859 88.2V95.634L33.2979 88.2H32.0659V98.14H33.3679V90.678L38.1559 98.14H39.3879V88.2H38.0859ZM51.3871 89.404H54.1451V88.2H47.3411V89.404H50.0991V98.14H51.3871V89.404ZM63.405 93.898H65.505L67.689 98.14H69.187L66.877 93.758C67.479 93.59 67.955 93.282 68.305 92.848C68.683 92.372 68.879 91.784 68.879 91.056C68.879 90.146 68.599 89.446 68.053 88.942C67.507 88.452 66.765 88.2 65.827 88.2H62.103V98.14H63.405V93.898ZM65.743 92.736H63.405V89.404H65.743C66.345 89.404 66.807 89.544 67.115 89.824C67.423 90.104 67.577 90.51 67.577 91.07C67.577 91.616 67.423 92.022 67.101 92.302C66.793 92.596 66.331 92.736 65.743 92.736ZM78.2259 97.328C78.8559 97.944 79.7099 98.252 80.7739 98.252C81.8239 98.252 82.6779 97.944 83.3079 97.328C83.9379 96.698 84.2599 95.732 84.2599 94.416V91.91C84.2599 90.594 83.9519 89.628 83.3219 88.998C82.6919 88.382 81.8379 88.074 80.7879 88.074C79.7239 88.074 78.8699 88.382 78.2399 88.998C77.6099 89.628 77.2879 90.594 77.2879 91.91V94.416C77.2879 95.732 77.5959 96.698 78.2259 97.328ZM82.9579 91.952V94.472C82.9579 96.194 82.2439 97.034 80.7879 97.034C80.0599 97.034 79.5139 96.838 79.1499 96.432C78.7719 96.04 78.5899 95.382 78.5899 94.472V91.952C78.5899 91 78.7719 90.314 79.1359 89.894C79.5139 89.488 80.0459 89.278 80.7879 89.278C82.2439 89.278 82.9579 90.146 82.9579 91.952ZM104.758 97.804C105.29 98.084 105.878 98.224 106.536 98.224C107.194 98.224 107.782 98.084 108.314 97.804C108.832 97.524 109.252 97.118 109.546 96.614C109.84 96.096 109.994 95.508 109.994 94.85V88.2H108.692V94.766C108.692 95.466 108.496 96.012 108.104 96.432C107.712 96.838 107.194 97.034 106.536 97.034C105.878 97.034 105.346 96.838 104.968 96.432C104.576 96.026 104.38 95.466 104.38 94.766V88.2H103.064V94.85C103.064 95.494 103.218 96.082 103.512 96.6C103.82 97.118 104.226 97.524 104.758 97.804ZM124.971 88.2V95.634L120.183 88.2H118.951V98.14H120.253V90.678L125.041 98.14H126.273V88.2H124.971ZM136.648 88.2H135.346V98.14H136.648V88.2ZM150.802 88.2L148.408 95.858L146 88.2H144.642L147.876 98.14H148.912L152.16 88.2H150.802ZM161.35 92.484V89.404H166.194V88.2H160.048V98.14H166.194V96.936H161.35V93.688H165.494V92.484H161.35ZM176.007 93.898H178.107L180.291 98.14H181.789L179.479 93.758C180.081 93.59 180.557 93.282 180.907 92.848C181.285 92.372 181.481 91.784 181.481 91.056C181.481 90.146 181.201 89.446 180.655 88.942C180.109 88.452 179.367 88.2 178.429 88.2H174.705V98.14H176.007V93.898ZM178.345 92.736H176.007V89.404H178.345C178.947 89.404 179.409 89.544 179.717 89.824C180.025 90.104 180.179 90.51 180.179 91.07C180.179 91.616 180.025 92.022 179.703 92.302C179.395 92.596 178.933 92.736 178.345 92.736ZM190.421 97.482C191.009 97.972 191.793 98.224 192.801 98.224C193.865 98.224 194.691 97.972 195.307 97.468C195.937 96.964 196.245 96.25 196.245 95.326C196.245 94.528 196.021 93.898 195.559 93.45C195.111 93.002 194.453 92.708 193.627 92.568L192.507 92.372C191.947 92.274 191.541 92.106 191.275 91.854C191.023 91.616 190.897 91.28 190.897 90.846C190.897 90.342 191.065 89.964 191.401 89.67C191.737 89.376 192.227 89.236 192.857 89.236C194.103 89.236 194.747 89.824 194.817 91.042H196.105C196.021 90.02 195.671 89.264 195.069 88.774C194.495 88.312 193.767 88.074 192.871 88.074C191.905 88.074 191.121 88.326 190.533 88.816C189.931 89.32 189.623 90.02 189.623 90.916C189.623 91.686 189.847 92.302 190.295 92.736C190.743 93.156 191.373 93.436 192.171 93.576L193.263 93.758C193.851 93.856 194.285 94.038 194.551 94.276C194.817 94.528 194.957 94.892 194.957 95.382C194.957 95.928 194.789 96.334 194.439 96.614C194.089 96.908 193.571 97.048 192.871 97.048C191.499 97.048 190.785 96.418 190.701 95.13H189.413C189.483 96.166 189.819 96.95 190.421 97.482ZM206.142 88.2H204.84V98.14H206.142V88.2ZM218.252 89.404H221.01V88.2H214.206V89.404H216.964V98.14H218.252V89.404ZM232.788 85.54H231.22L229.61 87.57H230.842L232.788 85.54ZM228.994 95.816H232.9L233.712 98.14H235.084L231.472 88.2H230.422L226.81 98.14H228.182L228.994 95.816ZM230.94 90.188L232.508 94.668H229.386L230.94 90.188ZM244.27 93.898H246.37L248.554 98.14H250.052L247.742 93.758C248.344 93.59 248.82 93.282 249.17 92.848C249.548 92.372 249.744 91.784 249.744 91.056C249.744 90.146 249.464 89.446 248.918 88.942C248.372 88.452 247.63 88.2 246.692 88.2H242.968V98.14H244.27V93.898ZM246.608 92.736H244.27V89.404H246.608C247.21 89.404 247.672 89.544 247.98 89.824C248.288 90.104 248.442 90.51 248.442 91.07C248.442 91.616 248.288 92.022 247.966 92.302C247.658 92.596 247.196 92.736 246.608 92.736ZM259.763 88.2H258.461V98.14H259.763V88.2ZM269.577 97.328C270.207 97.944 271.061 98.252 272.125 98.252C273.175 98.252 274.029 97.944 274.659 97.328C275.289 96.698 275.611 95.732 275.611 94.416V91.91C275.611 90.594 275.303 89.628 274.673 88.998C274.043 88.382 273.189 88.074 272.139 88.074C271.075 88.074 270.221 88.382 269.591 88.998C268.961 89.628 268.639 90.594 268.639 91.91V94.416C268.639 95.732 268.947 96.698 269.577 97.328ZM274.309 91.952V94.472C274.309 96.194 273.595 97.034 272.139 97.034C271.411 97.034 270.865 96.838 270.501 96.432C270.123 96.04 269.941 95.382 269.941 94.472V91.952C269.941 91 270.123 90.314 270.487 89.894C270.865 89.488 271.397 89.278 272.139 89.278C273.595 89.278 274.309 90.146 274.309 91.952ZM295.522 95.816H299.428L300.24 98.14H301.612L298 88.2H296.95L293.338 98.14H294.71L295.522 95.816ZM297.468 90.188L299.036 94.668H295.914L297.468 90.188ZM312.94 88.2H309.496V98.14H312.94C314.004 98.14 314.858 97.832 315.488 97.216C316.118 96.586 316.426 95.62 316.426 94.304V92.036C316.426 90.72 316.118 89.754 315.488 89.124C314.858 88.508 314.004 88.2 312.94 88.2ZM312.954 96.936H310.812V89.404H312.954C313.654 89.404 314.186 89.614 314.55 90.034C314.928 90.454 315.11 91.126 315.11 92.078V94.36C315.11 96.096 314.41 96.936 312.954 96.936ZM330.273 88.2L327.879 95.858L325.471 88.2H324.113L327.347 98.14H328.383L331.631 88.2H330.273ZM340.821 92.484V89.404H345.665V88.2H339.519V98.14H345.665V96.936H340.821V93.688H344.965V92.484H340.821ZM360.195 88.2V95.634L355.407 88.2H354.175V98.14H355.477V90.678L360.265 98.14H361.497V88.2H360.195ZM373.497 89.404H376.255V88.2H369.451V89.404H372.209V98.14H373.497V89.404ZM385.626 88.2H384.324V98.14H385.626V88.2ZM395.035 97.482C395.623 97.972 396.407 98.224 397.415 98.224C398.479 98.224 399.305 97.972 399.921 97.468C400.551 96.964 400.859 96.25 400.859 95.326C400.859 94.528 400.635 93.898 400.173 93.45C399.725 93.002 399.067 92.708 398.241 92.568L397.121 92.372C396.561 92.274 396.155 92.106 395.889 91.854C395.637 91.616 395.511 91.28 395.511 90.846C395.511 90.342 395.679 89.964 396.015 89.67C396.351 89.376 396.841 89.236 397.471 89.236C398.717 89.236 399.361 89.824 399.431 91.042H400.719C400.635 90.02 400.285 89.264 399.683 88.774C399.109 88.312 398.381 88.074 397.485 88.074C396.519 88.074 395.735 88.326 395.147 88.816C394.545 89.32 394.237 90.02 394.237 90.916C394.237 91.686 394.461 92.302 394.909 92.736C395.357 93.156 395.987 93.436 396.785 93.576L397.877 93.758C398.465 93.856 398.899 94.038 399.165 94.276C399.431 94.528 399.571 94.892 399.571 95.382C399.571 95.928 399.403 96.334 399.053 96.614C398.703 96.908 398.185 97.048 397.485 97.048C396.113 97.048 395.399 96.418 395.315 95.13H394.027C394.097 96.166 394.433 96.95 395.035 97.482ZM412.379 89.404H415.137V88.2H408.333V89.404H411.091V98.14H412.379V89.404ZM423.121 95.816H427.027L427.839 98.14H429.211L425.599 88.2H424.549L420.937 98.14H422.309L423.121 95.816ZM425.067 90.188L426.635 94.668H423.513L425.067 90.188Z" fill="#003366"/>
<path d="M137.851 102.2H134.407V112.14H137.851C138.915 112.14 139.769 111.832 140.399 111.216C141.029 110.586 141.337 109.62 141.337 108.304V106.036C141.337 104.72 141.029 103.754 140.399 103.124C139.769 102.508 138.915 102.2 137.851 102.2ZM137.865 110.936H135.723V103.404H137.865C138.565 103.404 139.097 103.614 139.461 104.034C139.839 104.454 140.021 105.126 140.021 106.078V108.36C140.021 110.096 139.321 110.936 137.865 110.936ZM151.404 106.484V103.404H156.248V102.2H150.102V112.14H156.248V110.936H151.404V107.688H155.548V106.484H151.404ZM175.129 111.482C175.717 111.972 176.501 112.224 177.509 112.224C178.573 112.224 179.399 111.972 180.015 111.468C180.645 110.964 180.953 110.25 180.953 109.326C180.953 108.528 180.729 107.898 180.267 107.45C179.819 107.002 179.161 106.708 178.335 106.568L177.215 106.372C176.655 106.274 176.249 106.106 175.983 105.854C175.731 105.616 175.605 105.28 175.605 104.846C175.605 104.342 175.773 103.964 176.109 103.67C176.445 103.376 176.935 103.236 177.565 103.236C178.811 103.236 179.455 103.824 179.525 105.042H180.813C180.729 104.02 180.379 103.264 179.777 102.774C179.203 102.312 178.475 102.074 177.579 102.074C176.613 102.074 175.829 102.326 175.241 102.816C174.639 103.32 174.331 104.02 174.331 104.916C174.331 105.686 174.555 106.302 175.003 106.736C175.451 107.156 176.081 107.436 176.879 107.576L177.971 107.758C178.559 107.856 178.993 108.038 179.259 108.276C179.525 108.528 179.665 108.892 179.665 109.382C179.665 109.928 179.497 110.334 179.147 110.614C178.797 110.908 178.279 111.048 177.579 111.048C176.207 111.048 175.493 110.418 175.409 109.13H174.121C174.191 110.166 174.527 110.95 175.129 111.482ZM190.626 100.562V101.85C190.906 101.514 191.144 101.276 191.312 101.164C191.424 101.094 191.55 101.066 191.704 101.066C191.774 101.066 191.844 101.08 191.9 101.094C191.97 101.108 192.054 101.15 192.152 101.192C192.222 101.234 192.292 101.262 192.32 101.276C192.488 101.388 192.656 101.472 192.782 101.514C192.922 101.57 193.076 101.598 193.258 101.598C193.664 101.598 194.028 101.388 194.364 100.996V99.722C194.07 100.058 193.832 100.296 193.664 100.394C193.566 100.464 193.454 100.492 193.3 100.492C193.188 100.492 193.09 100.464 192.992 100.436C192.908 100.394 192.782 100.338 192.642 100.24C192.474 100.156 192.32 100.072 192.194 100.03C192.054 99.974 191.9 99.946 191.732 99.946C191.522 99.946 191.326 99.988 191.158 100.086C190.99 100.184 190.808 100.338 190.626 100.562ZM190.542 109.816H194.448L195.26 112.14H196.632L193.02 102.2H191.97L188.358 112.14H189.73L190.542 109.816ZM192.488 104.188L194.056 108.668H190.934L192.488 104.188ZM205.135 111.328C205.765 111.944 206.619 112.252 207.683 112.252C208.733 112.252 209.587 111.944 210.217 111.328C210.847 110.698 211.169 109.732 211.169 108.416V105.91C211.169 104.594 210.861 103.628 210.231 102.998C209.601 102.382 208.747 102.074 207.697 102.074C206.633 102.074 205.779 102.382 205.149 102.998C204.519 103.628 204.197 104.594 204.197 105.91V108.416C204.197 109.732 204.505 110.698 205.135 111.328ZM209.867 105.952V108.472C209.867 110.194 209.153 111.034 207.697 111.034C206.969 111.034 206.423 110.838 206.059 110.432C205.681 110.04 205.499 109.382 205.499 108.472V105.952C205.499 105 205.681 104.314 206.045 103.894C206.423 103.488 206.955 103.278 207.697 103.278C209.153 103.278 209.867 104.146 209.867 105.952ZM235.909 102.984C235.335 102.466 234.565 102.2 233.585 102.2H229.973V112.14H231.275V108.15H233.585C234.551 108.15 235.321 107.898 235.895 107.366C236.469 106.848 236.763 106.134 236.763 105.224C236.763 104.258 236.483 103.516 235.909 102.984ZM234.971 106.512C234.635 106.806 234.145 106.946 233.501 106.946H231.275V103.404H233.501C234.145 103.404 234.621 103.558 234.957 103.852C235.293 104.146 235.461 104.594 235.461 105.224C235.461 105.812 235.293 106.232 234.971 106.512ZM245.544 109.816H249.45L250.262 112.14H251.634L248.022 102.2H246.972L243.36 112.14H244.732L245.544 109.816ZM247.49 104.188L249.058 108.668H245.936L247.49 104.188ZM260.952 111.804C261.484 112.084 262.072 112.224 262.73 112.224C263.388 112.224 263.976 112.084 264.508 111.804C265.026 111.524 265.446 111.118 265.74 110.614C266.034 110.096 266.188 109.508 266.188 108.85V102.2H264.886V108.766C264.886 109.466 264.69 110.012 264.298 110.432C263.906 110.838 263.388 111.034 262.73 111.034C262.072 111.034 261.54 110.838 261.162 110.432C260.77 110.026 260.574 109.466 260.574 108.766V102.2H259.258V108.85C259.258 109.494 259.412 110.082 259.706 110.6C260.014 111.118 260.42 111.524 260.952 111.804ZM276.447 102.2H275.145V112.14H281.263V110.936H276.447V102.2ZM289.75 111.328C290.38 111.944 291.234 112.252 292.298 112.252C293.348 112.252 294.202 111.944 294.832 111.328C295.462 110.698 295.784 109.732 295.784 108.416V105.91C295.784 104.594 295.476 103.628 294.846 102.998C294.216 102.382 293.362 102.074 292.312 102.074C291.248 102.074 290.394 102.382 289.764 102.998C289.134 103.628 288.812 104.594 288.812 105.91V108.416C288.812 109.732 289.12 110.698 289.75 111.328ZM294.482 105.952V108.472C294.482 110.194 293.768 111.034 292.312 111.034C291.584 111.034 291.038 110.838 290.674 110.432C290.296 110.04 290.114 109.382 290.114 108.472V105.952C290.114 105 290.296 104.314 290.66 103.894C291.038 103.488 291.57 103.278 292.312 103.278C293.768 103.278 294.482 104.146 294.482 105.952Z" fill="#003366"/>
</svg>
